<?xml version="1.0" encoding="utf-8"?>
<!-- Generator: Adobe Illustrator 26.5.0, SVG Export Plug-In . SVG Version: 6.00 Build 0)  -->
<svg version="1.1" id="Layer_1" xmlns="http://www.w3.org/2000/svg" xmlns:xlink="http://www.w3.org/1999/xlink" x="0px" y="0px"
	 viewBox="0 0 108.5 45" style="enable-background:new 0 0 108.5 45;" xml:space="preserve">
<style type="text/css">
	.st0{fill:#EB455F;}
	.st1{fill:#2B3467;}
</style>
<path class="st0" d="M22.2,0.8c-12.1,0-21.9,9.8-21.9,21.9s9.8,21.9,21.9,21.9s21.9-9.8,21.9-21.9S34.3,0.8,22.2,0.8z M22.2,42.6
	c-11,0-19.9-8.9-19.9-19.9s8.9-20,19.9-20s19.9,8.9,19.9,19.9S33.2,42.6,22.2,42.6z"/>
<path class="st0" d="M38.7,17.4c-0.7-0.9-1.5-1.3-2.5-1.2c-0.3,0-0.5,0-0.7-0.4c-0.6-1-1.2-2.1-1.9-2.9c-3.1-3.8-7-5.7-11.5-5.8
	c-3.4-0.1-6.6,0.8-9.6,3c-1.9,1.4-3.5,3.2-4.7,5.6c-0.2,0.5-0.5,0.6-0.9,0.6c-1.4-0.1-2.6,1-2.9,2.6c-0.3,1.5,0.3,3.1,1.6,3.9
	c0.3,0,0.4,0.1,0.4,0.4c0,0.7,0,1.3,0,2.1c0.2-0.1,0.4-0.2,0.5-0.3c1.5-1.2,3.1-2.1,4.7-2.8c1.9-0.8,3.8-1.3,5.7-1.7
	c0.2,0,0.5-0.2,0.6-0.4c0.3-0.6,0.8-1,1.3-1.3c1.5-0.9,3.1-1,4.7-0.4c0.8,0.3,1.6,0.7,2.1,1.6c0.2,0.3,0.4,0.5,0.7,0.5
	c0.6,0.1,1.3,0.3,1.9,0.4c3.1,0.8,6.1,2.1,8.8,4.2c0.1,0,0.1,0.1,0.3,0.1c0-0.5,0-1,0-1.5c-0.1-0.7,0-1.2,0.7-1.5
	c0.1,0,0.2-0.1,0.3-0.2C39.5,21,39.8,18.9,38.7,17.4L38.7,17.4z M15.5,19.9c-0.7,0.8-2,0.8-2.6,0c-0.4-0.5-0.6-1.1-0.4-1.7
	c0.2-0.7,0.6-1.1,1.2-1.3c0.2-0.1,0.4-0.1,0.5-0.1c0.7,0,1.2,0.3,1.6,0.9C16.1,18.5,16,19.3,15.5,19.9L15.5,19.9z M30.9,19
	c-0.1,0.7-0.5,1.1-1.1,1.3c-0.2,0.1-0.5,0.1-0.8,0.2c-0.2-0.1-0.6-0.1-0.8-0.3c-1-0.6-1.1-2.1-0.2-3c0.6-0.6,1.6-0.6,2.3-0.1
	C30.8,17.6,31,18.3,30.9,19z"/>
<path class="st0" d="M14.4,18c-0.4,0-0.7,0.3-0.7,0.7c0,0.5,0.3,0.8,0.7,0.8s0.7-0.3,0.7-0.7C15.1,18.3,14.8,18,14.4,18z"/>
<path class="st0" d="M29.3,18c-0.4,0-0.7,0.4-0.7,0.8s0.3,0.7,0.7,0.7c0.5,0,0.8-0.3,0.8-0.8C30.1,18.3,29.7,17.9,29.3,18L29.3,18z"
	/>
<path class="st0" d="M33.5,32.5c-1.1,0.8-2.5,1.3-3.9,1.3c-3.1,0-5.7-2.1-6.4-4.9c-0.1-0.3,0.1-0.7,0.4-0.8c1.8-0.5,3.1-1.8,3.1-3.2
	c0-1.9-2.2-3.5-5-3.5s-5,1.6-5,3.5c0,1.4,1.3,2.7,3.1,3.2c0.3,0.1,0.5,0.4,0.4,0.8c-0.7,2.8-3.3,4.9-6.4,4.9c-1.5,0-2.8-0.5-3.9-1.3
	c-0.2-0.1-0.4,0.1-0.3,0.3c1.1,2,3.3,3.4,5.8,3.4c3.1,0,5.7-2.1,6.4-4.9c0.7,2.8,3.3,4.9,6.4,4.9c2.5,0,4.7-1.4,5.8-3.4
	C33.9,32.6,33.7,32.4,33.5,32.5z"/>
<g>
	<path class="st1" d="M53.3,15.5c0.7,0,1.3-0.1,1.8-0.4l0.8,0.8l1.4-1.2L56.6,14c0.5-0.8,0.8-1.6,0.8-2.5c0-1.1-0.4-2.1-1.2-2.8
		c-0.8-0.8-1.8-1.2-2.9-1.2c-1.1,0-2,0.5-2.8,1.2s-1.2,1.7-1.2,2.8s0.5,2,1.2,2.8S52.2,15.5,53.3,15.5z M51.9,10
		c0.4-0.4,0.9-0.6,1.5-0.6c0.6,0,1.1,0.2,1.5,0.6c0.4,0.4,0.6,0.9,0.6,1.5c0,0.4,0,0.7-0.2,1l-1.2-1.2l-1.4,1.2l1,1.1
		c-0.1,0-0.2,0-0.3,0c-0.6,0-1.1-0.2-1.5-0.6c-0.4-0.4-0.6-0.9-0.6-1.5S51.5,10.4,51.9,10z"/>
	<path class="st1" d="M60.9,15.6c0.7,0,1.2-0.2,1.5-0.7v0.5h1.8V9.9h-1.8v2.8c0,0.3,0,0.5-0.2,0.7c-0.2,0.2-0.4,0.3-0.7,0.3
		s-0.5-0.1-0.6-0.2c-0.1-0.1-0.2-0.3-0.2-0.6v-3h-1.8v3.4c0,0.7,0.2,1.3,0.6,1.7C59.8,15.4,60.3,15.6,60.9,15.6z"/>
	<polygon class="st1" points="65.8,15.3 65.8,15.4 67.6,15.4 67.6,9.9 65.8,9.9 	"/>
	<path class="st1" d="M66.7,9.4c0.2,0,0.5-0.1,0.7-0.3c0.2-0.2,0.3-0.4,0.3-0.7c0-0.3-0.1-0.5-0.3-0.7c-0.2-0.2-0.4-0.3-0.7-0.3
		c-0.2,0-0.5,0.1-0.7,0.3s-0.3,0.5-0.3,0.7c0,0.2,0.1,0.5,0.3,0.7C66.2,9.3,66.4,9.4,66.7,9.4z"/>
	<path class="st1" d="M73.2,15.1c0.4-0.2,0.8-0.6,1-1l-1.6-0.9c-0.2,0.3-0.5,0.5-1,0.5c-0.3,0-0.6-0.1-0.8-0.3
		c-0.2-0.2-0.3-0.5-0.3-0.8c0-0.3,0.1-0.6,0.3-0.8s0.5-0.3,0.8-0.3c0.5,0,0.8,0.1,1,0.5l1.6-0.9c-0.2-0.4-0.5-0.7-1-1
		c-0.5-0.3-1-0.4-1.5-0.4c-0.9,0-1.5,0.2-2.1,0.8c-0.5,0.6-0.8,1.3-0.8,2.1c0,0.9,0.2,1.5,0.8,2.1c0.6,0.5,1.3,0.8,2.1,0.8
		C72.2,15.5,72.7,15.4,73.2,15.1z"/>
	<polygon class="st1" points="80.7,9.9 78.6,9.9 77.2,12.2 77.2,7.7 75.4,7.7 75.4,15.3 77.2,15.3 77.2,13 78.8,15.3 80.8,15.3 
		78.9,12.6 	"/>
	<path class="st1" d="M87,13h1c0.8,0,1.4-0.2,1.9-0.7s0.8-1.1,0.8-1.9c0-0.8-0.3-1.4-0.8-1.9S88.8,7.7,88,7.7h-3v7.6h2V13z M87,9.6
		h1c0.3,0,0.5,0.1,0.6,0.2c0.1,0.2,0.2,0.4,0.2,0.6c0,0.2,0,0.5-0.2,0.6c-0.2,0.1-0.4,0.2-0.6,0.2h-1V9.6z"/>
	<path class="st1" d="M95.5,15.4h1.8V9.9h-1.8v0.6c-0.4-0.5-0.9-0.7-1.6-0.7c-0.7,0-1.3,0.2-1.8,0.8c-0.5,0.6-0.7,1.2-0.7,2.1
		c0,0.9,0.2,1.6,0.7,2.1s1.1,0.8,1.8,0.8c0.7,0,1.2-0.3,1.6-0.7V15.4z M95.1,13.5c-0.2,0.2-0.5,0.3-0.8,0.3c-0.3,0-0.6-0.1-0.8-0.3
		c-0.2-0.3-0.3-0.5-0.3-0.9c0-0.4,0.1-0.7,0.3-0.9s0.5-0.3,0.8-0.3c0.3,0,0.6,0,0.8,0.3c0.2,0.3,0.3,0.5,0.3,0.9
		C95.4,13,95.3,13.3,95.1,13.5z"/>
	<path class="st1" d="M102.3,9.9l-0.9,3.3l-1.1-3.2h-2l2.2,5.3c-0.1,0.2-0.3,0.4-0.5,0.5c-0.2,0.1-0.5,0.1-0.9,0.1v1.7
		c0.9,0,1.6-0.1,2.1-0.5c0.5-0.4,0.9-1,1.2-1.8l1.9-5.4H102.3z"/>
	<path class="st1" d="M58.1,19C52.5,19,48,23.5,48,29.1c0,5.6,4.5,10.1,10.1,10.1c5.6,0,10.1-4.4,10.1-10.1
		C68.2,23.4,63.7,19,58.1,19z M58.1,35.5c-3.5,0-6.3-2.6-6.3-6.3s2.8-6.4,6.3-6.4s6.3,2.6,6.3,6.4C64.3,32.9,61.6,35.5,58.1,35.5z"
		/>
	<path class="st1" d="M76.6,21.1L73,22.2V25h-2.4v3.4H73v5.8c0,3.7,1.7,5.2,6.7,4.7v-3.2c-2,0.1-3.1,0.1-3.1-1.4v-5.8h3.1V25h-3.1
		V21.1z"/>
	<path class="st1" d="M87.7,21.1l-3.6,1.1V25h-2.4v3.4h2.4v5.8c0,3.7,1.7,5.2,6.7,4.7v-3.2c-2,0.1-3.1,0.1-3.1-1.4v-5.8h3.1V25h-3.1
		V21.1z"/>
	<path class="st1" d="M98.2,27.3V25h-3.6v13.9h3.6v-6.6c0-2.9,2.4-3.7,4.2-3.5v-4C100.7,24.7,99,25.5,98.2,27.3z"/>
</g>
</svg>
