<?xml version="1.0" encoding="utf-8"?>
<!-- Generator: Adobe Illustrator 26.5.0, SVG Export Plug-In . SVG Version: 6.00 Build 0)  -->
<svg version="1.1" id="Layer_1" xmlns="http://www.w3.org/2000/svg" xmlns:xlink="http://www.w3.org/1999/xlink" x="0px" y="0px"
	 viewBox="0 0 218 218" style="enable-background:new 0 0 218 218;" xml:space="preserve">
<style type="text/css">
	.st0{fill:#FFFFFF;}
	.st1{fill:#EE3658;}
</style>
<circle class="st0" cx="105.1" cy="109.2" r="103.9"/>
<g>
	<path class="st1" d="M108.9,0.5C49,0.5,0.2,49.3,0.2,109.2S49,217.9,108.9,217.9s108.7-48.8,108.7-108.7S168.9,0.5,108.9,0.5z
		 M108.9,208.3c-54.6,0-99.1-44.5-99.1-99.1s44.5-99.1,99.1-99.1S208,54.6,208,109.2C208,163.8,163.6,208.3,108.9,208.3z"/>
	<path class="st1" d="M190.8,83c-3.3-4.7-7.6-6.6-12.7-5.9c-1.5,0.2-2.3-0.3-3.2-1.9c-2.9-5-5.7-10.2-9.3-14.5
		c-15.7-19-34.9-28.2-56.9-29.1C91.6,30.9,75.6,35.8,61,46.7c-9.5,7.1-17.5,16-23.3,27.6c-1.2,2.4-2.3,3-4.5,2.8
		c-6.8-0.7-12.9,4.7-14.7,12.8c-1.7,7.5,1.6,15.3,8.1,19.2c1.2,0.7,1.6,1.5,1.6,3.1c-0.1,3.3,0,6.7,0,10.5c1.2-0.7,1.9-1.1,2.6-1.7
		c7.3-5.8,15.2-10.4,23.4-13.8c9.3-3.9,18.8-6.7,28.5-8.5c1.1-0.2,2.6-0.8,3.2-1.8c1.6-2.9,3.7-5,6.3-6.4c7.5-4.3,15.3-4.8,23.3-2.1
		c4.1,1.4,7.8,3.5,10.4,7.8c1,1.7,2.1,2.3,3.6,2.6c3.1,0.6,6.3,1.3,9.4,2.1c15.6,3.7,30.3,10.4,43.7,20.9c0.3,0.2,0.7,0.3,1.5,0.8
		c0-2.7,0.2-5.1,0-7.5c-0.4-3.5,0.2-6.1,3.3-7.2c0.5-0.2,0.9-0.7,1.3-1C195,101,196,90.4,190.8,83z M75.4,95.7
		c-3.3,3.8-9.9,3.9-13.2,0.1c-2.1-2.4-2.9-5.3-2.2-8.6c0.8-3.6,3-5.6,5.8-6.6c0.9-0.3,1.9-0.4,2.5-0.5c3.5,0.2,6.2,1.4,8,4.7
		C78.3,88.5,78,92.7,75.4,95.7z M152.1,91.3c-0.6,3.5-2.6,5.6-5.3,6.6c-1.2,0.4-2.4,0.5-4,0.8c-1.2-0.4-2.8-0.6-4.2-1.4
		c-5.1-3-5.7-10.5-1.2-14.7c3.2-3,8-3.2,11.3-0.5C151.6,84.3,152.7,87.4,152.1,91.3z"/>
	<path class="st1" d="M69.8,85.9c-1.8-0.1-3.5,1.7-3.6,3.6c-0.1,2.3,1.4,3.9,3.6,4c1.9,0,3.6-1.6,3.6-3.5
		C73.5,87.7,71.9,85.9,69.8,85.9z"/>
	<path class="st1" d="M144.2,85.9c-2,0-3.6,1.7-3.5,3.9c0,1.9,1.6,3.6,3.4,3.6c2.2,0,3.8-1.6,3.8-3.9
		C147.8,87.7,146.1,85.9,144.2,85.9z"/>
	<path class="st1" d="M165,158.4c-5.5,3.9-12.2,6.3-19.5,6.3c-15.4,0-28.3-10.3-31.7-24.2c-0.4-1.6,0.5-3.3,2-3.8
		c9-2.6,15.3-8.8,15.3-15.9c0-9.6-11.2-17.3-25-17.3s-25,7.8-25,17.3c0,7.2,6.3,13.3,15.3,15.9c1.6,0.5,2.4,2.2,2,3.8
		c-3.5,13.9-16.4,24.2-31.7,24.2c-7.3,0-14.1-2.3-19.5-6.3c-0.9-0.7-2.2,0.3-1.6,1.3c5.5,10,16.3,16.8,28.8,16.8
		c15.4,0,28.2-10.3,31.7-24.1c3.5,13.8,16.4,24.1,31.7,24.1c12.5,0,23.3-6.8,28.8-16.8C167.2,158.7,166,157.7,165,158.4z"/>
</g>
</svg>
